<svg width="40" height="40" viewBox="0 0 40 40" fill="none" xmlns="http://www.w3.org/2000/svg">
<g clip-path="url(#clip0)">
<path d="M22.224 31.4808V32.3304V34.7976V36.7632H25.4232C26.3808 36.7632 27.1564 37.5396 27.1564 38.4968C27.1564 39.4537 26.3801 40.2288 25.4232 40.2288H15.5588C14.6016 40.2288 13.8252 39.4538 13.8252 38.4968C13.8252 37.5395 14.601 36.7632 15.5588 36.7632H18.758V34.7976V32.3304V31.4808C12.4912 30.6343 7.66 25.2655 7.66 18.7672C7.66 17.8098 8.43554 17.0336 9.3924 17.0336C10.3499 17.0336 11.1256 17.8096 11.1256 18.7672C11.1256 23.9386 15.3185 28.1312 20.49 28.1312C25.6623 28.1312 29.8556 23.9386 29.8556 18.7672C29.8556 17.8096 30.6314 17.0336 31.5888 17.0336C32.5456 17.0336 33.3212 17.8097 33.3212 18.7672L22.224 31.4808ZM22.224 31.4808C28.4908 30.6343 33.3216 25.2655 33.3212 18.7672L22.224 31.4808ZM12.592 18.7672C12.592 23.1293 16.1287 26.6656 20.4904 26.6656C24.8533 26.6656 28.39 23.1294 28.39 18.7672V7.66919C28.39 3.307 24.8537 -0.229202 20.4904 -0.229202C16.1287 -0.229202 12.592 3.30704 12.592 7.66919V18.7672ZM20.4904 3.2364C22.9387 3.2364 24.9232 5.22094 24.9232 7.66919V18.7672C24.9232 21.2149 22.9388 23.1984 20.4904 23.1984C18.0432 23.1984 16.0588 21.2153 16.0588 18.7672V7.66919C16.0588 5.22086 18.0434 3.2364 20.4904 3.2364Z" fill="white" stroke="white"/>
</g>
<defs>
<clipPath id="clip0">
<rect width="40" height="40" fill="white"/>
</clipPath>
</defs>
</svg>
