<svg width="38" height="38" viewBox="0 0 38 38" fill="none" xmlns="http://www.w3.org/2000/svg">
<path d="M26.5235 8.02765C21.4342 2.93661 13.1807 2.93661 8.08957 8.02765C2.99845 13.1187 2.99854 21.3722 8.08957 26.4616C13.1799 31.5523 21.433 31.5523 26.5235 26.4622V26.4616C31.6142 21.3716 31.6142 13.1186 26.5241 8.02821C26.524 8.02804 26.5235 8.02804 26.5235 8.02765ZM5.25308 29.2981C-1.40288 22.6404 -1.40288 11.8475 5.25308 5.18947C11.9105 -1.4665 22.7028 -1.4665 29.3617 5.18947C36.0181 11.8475 36.0181 22.6403 29.3617 29.2981C22.7028 35.9541 11.9107 35.9541 5.25308 29.2981ZM37.1005 37.0387C36.1905 37.9475 34.7162 37.9475 33.8069 37.0387L30.5148 33.745C29.6058 32.8354 29.6058 31.3617 30.5148 30.4527C31.4236 29.544 32.8973 29.544 33.8069 30.4527L37.1005 33.745C38.0116 34.656 38.0116 36.1293 37.1005 37.0387Z" fill="white"/>
</svg>
