<?xml version="1.0" standalone="no"?><!DOCTYPE svg PUBLIC "-//W3C//DTD SVG 1.1//EN" "http://www.w3.org/Graphics/SVG/1.1/DTD/svg11.dtd"><svg class="icon" height="512" viewBox="0 0 1231 1024" version="1.1" xmlns="http://www.w3.org/2000/svg"><path d="M669.60005 481.195718c16.105271 0 29.161002-13.05573 29.161001-29.161002v-422.873714c0-16.105271-13.05573-29.161002-29.161001-29.161002s-29.161002 13.05573-29.161002 29.161002v422.873714c0 16.104338 13.05573 29.161002 29.161002 29.161002zM1046.699857 227.066688c-48.892502-72.903437-117.216961-129.755726-197.585615-164.409261-14.792326-6.378094-31.947394 0.443247-38.324555 15.230908-6.376228 14.788594 0.443247 31.947394 15.230908 38.323622 145.189127 62.604238 239.002635 205.198269 239.002635 363.275159 0 218.037508-177.386606 395.423181-395.42318 395.423181s-395.423181-177.385672-395.423181-395.423181c0-158.07689 93.813508-300.670922 239.002635-363.275159 14.788594-6.376228 21.607136-23.535028 15.230908-38.323622-6.377161-14.788594-23.532228-21.609002-38.324555-15.230908-80.368653 34.654468-148.693113 91.506756-197.585615 164.410194-50.141992 74.764142-76.645377 162.049319-76.645376 252.420428 0 61.242769 12.000335 120.668691 35.669737 176.62702 22.85476 54.035103 55.568271 102.557143 97.229778 144.219583 41.661506 41.661506 90.18448 74.374085 144.218649 97.228844 55.959262 23.668469 115.384251 35.669737 176.62702 35.669737s120.668691-12.000335 176.627019-35.669737c54.035103-22.85476 102.557143-55.567338 144.219583-97.228844 41.661506-41.661506 74.374085-90.18448 97.228844-144.219583 23.668469-55.958329 35.669737-115.384251 35.669737-176.62702 0-90.37111-26.503384-177.656287-76.645376-252.421361z" /></svg>