<?xml version="1.0" standalone="no"?><!DOCTYPE svg PUBLIC "-//W3C//DTD SVG 1.1//EN" "http://www.w3.org/Graphics/SVG/1.1/DTD/svg11.dtd"><svg class="icon" height="512" viewBox="0 0 1024 1024" version="1.1" xmlns="http://www.w3.org/2000/svg"><path d="M556.1344 794.5216l0 33.13664 0 63.16032 0 63.11936 94.69952 0c17.43872 0 31.56992 14.14144 31.56992 31.58016 0 17.41824-14.1312 31.5392-31.56992 31.5392L398.30528 1017.05728c-17.44896 0-31.58016-14.12096-31.58016-31.5392 0-17.43872 14.1312-31.58016 31.58016-31.58016l94.69952 0 0-63.11936 0-63.16032L493.0048 794.5216C333.48608 778.68032 208.896 644.11648 208.896 480.44032c0-17.44896 14.1312-31.58016 31.54944-31.58016 17.43872 0 31.56992 14.1312 31.56992 31.58016 0 139.45856 113.07008 252.5184 252.52864 252.5184 139.47904 0 252.55936-113.05984 252.55936-252.5184 0-17.44896 14.1312-31.58016 31.56992-31.58016 17.41824 0 31.54944 14.1312 31.54944 31.58016C840.23296 644.11648 715.65312 778.68032 556.1344 794.5216zM524.55424 669.83936c-104.59136 0-189.39904-84.79744-189.39904-189.39904L335.1552 196.33152c0-104.6016 84.80768-189.39904 189.39904-189.39904 104.63232 0 189.42976 84.79744 189.42976 189.39904l0 284.1088C713.984 585.04192 629.17632 669.83936 524.55424 669.83936zM650.83392 196.33152c0-69.74464-56.53504-126.27968-126.27968-126.27968-69.71392 0-126.24896 56.53504-126.24896 126.27968l0 284.1088c0 69.74464 56.53504 126.23872 126.24896 126.23872 69.74464 0 126.27968-56.50432 126.27968-126.23872L650.83392 196.33152z" /></svg>