<?xml version="1.0" standalone="no"?><!DOCTYPE svg PUBLIC "-//W3C//DTD SVG 1.1//EN" "http://www.w3.org/Graphics/SVG/1.1/DTD/svg11.dtd"><svg class="icon" height="512" viewBox="0 0 1024 1024" version="1.1" xmlns="http://www.w3.org/2000/svg"><path d="M511.301632 1023.110144c-281.915392 0-510.483456-228.569088-510.483456-510.483456 0-281.911296 228.56704-510.483456 510.483456-510.483456 281.9072 0 510.483456 228.57216 510.483456 510.483456C1021.784064 794.541056 793.208832 1023.110144 511.301632 1023.110144zM511.301632 65.025024c-247.189504 0-447.601664 200.48896-447.601664 447.601664 0 247.113728 200.413184 447.602688 447.601664 447.602688 247.113728 0 447.602688-200.48896 447.602688-447.602688C958.90432 265.513984 758.41536 65.025024 511.301632 65.025024zM548.293632 219.685888c46.150656 0 59.828224 26.78272 59.828224 57.389056 0 38.259712-30.727168 73.65632-82.965504 73.65632-43.742208 0-64.530432-22.02112-63.26272-58.35264C461.893632 261.711872 487.560192 219.685888 548.293632 219.685888zM429.9008 806.171648c-31.5136 0-54.65088-19.098624-32.595968-103.330816L433.452032 553.597952c6.327296-23.918592 7.351296-33.50016 0-33.50016-9.40032 0-50.368512 16.539648-74.591232 32.837632l-15.785984-25.788416c76.75904-64.04608 164.969472-101.67296 202.868736-101.67296 31.450112 0 36.750336 37.325824 20.964352 94.68416l-41.39008 156.954624c-7.354368 27.774976-4.159488 37.354496 3.13344 37.354496 9.40032 0 40.428544-11.506688 70.916096-35.426304l17.831936 23.918592c-74.592256 74.591232-155.990016 103.330816-187.563008 103.330816L429.9008 806.171648z" /></svg>