<?xml version="1.0" standalone="no"?><!DOCTYPE svg PUBLIC "-//W3C//DTD SVG 1.1//EN" "http://www.w3.org/Graphics/SVG/1.1/DTD/svg11.dtd"><svg class="icon" height="512" viewBox="0 0 1024 1024" version="1.1" xmlns="http://www.w3.org/2000/svg"><path d="M714.7398621866668 216.32377856000005c-137.14464312888887-137.19005070222224-359.55410488888884-137.19005070222224-496.7464846222222 0s-137.19005070222224 359.5995124622222 0 496.7464846222222c137.17025678222222 137.18073571555553 359.57040583111115 137.18073571555553 496.7464846222222 0.015135857777777775v-0.015135857777777775c137.18073571555553-137.16094293333333 137.18073571555553-359.55992689777776 0.015135857777777775-496.7313487644444-0.0011639466666666667-0.004656924444444445-0.015135857777777775-0.004656924444444445-0.015135857777777775-0.015135857777777775z m-573.1824548977778 573.1836188444445c-179.36081692444444-179.40971747555557-179.36081692444444-470.24829326222226 0-649.6649966933334 179.40040362666667-179.36081692444444 470.22384241777775-179.36081692444444 649.6649966933334 0 179.3701319111111 179.41553948444442 179.3701319111111 470.2541141333333 0 649.6649966933334-179.44115313777777 179.35965297777778-470.25993614222216 179.35965297777778-649.6649966933334 0z m858.2053762844444 208.5869511111111c-24.524711253333336 24.489782613333333-64.25278691555555 24.489782613333333-88.75654030222222 0l-88.71229781333334-88.75654030222222c-24.49443953777778-24.510739342222223-24.49443953777778-64.2225152 0-88.71695473777777 24.489782613333333-24.48861752888889 64.20155733333333-24.48861752888889 88.71229781333334 0l88.75654030222222 88.71695473777777c24.55148999111111 24.54916096 24.55148999111111 64.25162296888888 0 88.75654030222222z" fill="#5b9deb" /></svg>