<?xml version="1.0" standalone="no"?><!DOCTYPE svg PUBLIC "-//W3C//DTD SVG 1.1//EN" "http://www.w3.org/Graphics/SVG/1.1/DTD/svg11.dtd"><svg class="icon" height="512" viewBox="0 0 1024 1024" version="1.1" xmlns="http://www.w3.org/2000/svg"><path d="M512 597.333333c-46.933333 0-85.333333 38.4-85.333333 85.333333 0 21.333333 8.533333 42.666667 21.333333 55.466667 0 4.266667 0 4.266667 0 8.533333 0 34.133333 29.866667 64 64 64 34.133333 0 64-29.866667 64-64 0-4.266667 0-4.266667 0-8.533333 12.8-12.8 21.333333-34.133333 21.333333-55.466667C597.333333 631.466667 558.933333 597.333333 512 597.333333zM533.333333 712.533333l0 25.6c0 12.8-8.533333 21.333333-21.333333 21.333333-12.8 0-21.333333-8.533333-21.333333-21.333333l0-25.6c-12.8-8.533333-21.333333-21.333333-21.333333-34.133333 0-21.333333 17.066667-42.666667 42.666667-42.666667 21.333333 0 42.666667 17.066667 42.666667 42.666667C554.666667 695.466667 546.133333 708.266667 533.333333 712.533333zM763.733333 426.666667 763.733333 302.933333c0-136.533333-110.933333-251.733333-251.733333-251.733333-136.533333 0-251.733333 110.933333-251.733333 251.733333L260.266667 426.666667c-46.933333 0-85.333333 38.4-85.333333 85.333333l0 375.466667c0 46.933333 38.4 85.333333 85.333333 85.333333l499.2 0c46.933333 0 85.333333-38.4 85.333333-85.333333L844.8 512C844.8 465.066667 806.4 426.666667 763.733333 426.666667zM302.933333 302.933333c0-115.2 93.866667-209.066667 209.066667-209.066667 115.2 0 209.066667 93.866667 209.066667 209.066667L721.066667 426.666667 302.933333 426.666667 302.933333 302.933333zM802.133333 887.466667c0 21.333333-17.066667 42.666667-42.666667 42.666667L260.266667 930.133333c-21.333333 0-42.666667-17.066667-42.666667-42.666667L217.6 512c0-21.333333 17.066667-42.666667 42.666667-42.666667l456.533333 0 42.666667 0c21.333333 0 42.666667 17.066667 42.666667 42.666667L802.133333 887.466667z" /></svg>